<?xml version="1.0" encoding="UTF-8" standalone="no"?>
<!DOCTYPE svg PUBLIC "-//W3C//DTD SVG 1.1//EN" "http://www.w3.org/Graphics/SVG/1.1/DTD/svg11.dtd">
<svg width="100%" height="100%" viewBox="0 0 617 613" version="1.1" xmlns="http://www.w3.org/2000/svg" xmlns:xlink="http://www.w3.org/1999/xlink" xml:space="preserve" xmlns:serif="http://www.serif.com/" style="fill-rule:evenodd;clip-rule:evenodd;stroke-linejoin:round;stroke-miterlimit:2;">
    <path d="M234.71,105.72C267.06,73.53 318.93,69.8 355.48,97.68C358.673,100.12 363.573,104.627 370.18,111.2C441.87,182.61 513.23,254.37 584.68,325.98C584.883,326.183 584.883,326.519 584.68,326.73L527.4,384.12C527.399,384.121 527.398,384.122 527.397,384.123C526.96,384.563 526.235,384.562 525.792,384.122C525.791,384.121 525.791,384.121 525.79,384.12C449.103,307.407 371.597,229.783 293.27,151.25C287.457,145.417 282.67,141.243 278.91,138.73C253.16,121.53 220.24,123.96 196.84,143.96C196.787,144.013 196.733,144.01 196.68,143.95C196.633,143.897 196.633,143.847 196.68,143.8C208.927,131.453 221.603,118.76 234.71,105.72Z" style="fill:rgb(19,55,79);fill-rule:nonzero;"/>
    <path d="M211.85,173.13C220.01,175.91 227.22,180.457 233.48,186.77C242.44,195.803 251.24,204.63 259.88,213.25C260.273,213.637 260.273,214.027 259.88,214.42L201.01,273.27C201.009,273.271 201.009,273.271 201.008,273.272C200.587,273.696 199.888,273.695 199.46,273.27L133.93,207.62C133.67,207.36 133.667,207.1 133.92,206.84C139.2,201.253 145.073,195.26 151.54,188.86C157.12,183.333 161.797,179.533 165.57,177.46C180.63,169.193 196.057,167.75 211.85,173.13Z" style="fill:rgb(19,55,79);fill-rule:nonzero;"/>
    <path d="M442.44,464.26C421.95,473.73 398.18,469.96 381.58,455.32C379.227,453.247 376.797,450.95 374.29,448.43C321.23,395.057 270.49,344.233 222.07,295.96C221.763,295.654 221.758,295.153 222.06,294.85L280.9,235.8C281.284,235.416 281.916,235.416 282.3,235.8L478.39,432.14C478.75,432.5 478.75,432.86 478.39,433.22C474.55,437.06 470.537,441.06 466.35,445.22C457.1,454.44 451.99,459.84 442.44,464.26Z" style="fill:rgb(19,55,79);fill-rule:nonzero;"/>
    <path d="M293.92,562.5C278.87,560.03 263.72,553.64 252.12,544.15C247.68,540.517 242.753,535.983 237.34,530.55C167.767,460.737 97.083,389.943 25.29,318.17C24.337,317.217 24.337,316.26 25.29,315.3L84.71,255.75C85.363,255.097 86.017,255.097 86.67,255.75C165.343,334.483 244.1,413.337 322.94,492.31C348.49,517.91 387.58,519.22 415.14,496.11C415.193,496.063 415.24,496.067 415.28,496.12L415.29,496.12C415.363,496.207 415.363,496.287 415.29,496.36C403.33,508.247 391.393,520.22 379.48,532.28C373.88,537.947 368.87,542.403 364.45,545.65C344.13,560.6 318.99,566.62 293.92,562.5Z" style="fill:rgb(235,99,15);fill-rule:nonzero;"/>
</svg>
